<svg width="22" height="22" viewBox="0 0 22 22" fill="none" xmlns="http://www.w3.org/2000/svg">
<path d="M1 15C1 12.1716 1 10.7574 1.87868 9.8787C2.75736 9 4.17157 9 7 9H15C17.8284 9 19.2426 9 20.1213 9.8787C21 10.7574 21 12.1716 21 15C21 17.8284 21 19.2426 20.1213 20.1213C19.2426 21 17.8284 21 15 21H7C4.17157 21 2.75736 21 1.87868 20.1213C1 19.2426 1 17.8284 1 15Z" stroke="#5C460F"/>
<path d="M11 13V17" stroke="#5C460F" stroke-linecap="round"/>
<path d="M5 9V7C5 3.68629 7.68629 1 11 1C14.3137 1 17 3.68629 17 7V9" stroke="#5C460F" stroke-linecap="round"/>
</svg>
