<svg width="212" height="40" viewBox="0 0 212 40" fill="none" xmlns="http://www.w3.org/2000/svg">
<path d="M178.496 39.355H145.687V33.0469H181.526L178.496 39.355Z" fill="black"/>
<path d="M0.466857 21.5066C0.23313 14.8115 1.99236 9.48225 5.6968 5.66724C11.1014 0.100527 18.6548 0 19.175 0C19.1826 0 19.1876 0 19.1926 0H30.2079V6.02913H19.1763C19.121 6.02913 13.6397 6.10076 9.98304 9.90824C7.49372 12.4993 6.32258 16.5619 6.49725 21.5267L0.468113 21.5066H0.466857Z" fill="#616160"/>
<path d="M11.0329 39.8551C11.0254 39.8551 11.0203 39.8551 11.0153 39.8551H0V33.826H11.0316C11.0869 33.826 16.5682 33.7543 20.2249 29.9469C22.3837 27.7001 23.5548 24.4744 23.7157 20.4194C23.7408 19.7986 23.7408 19.1578 23.7182 18.498H29.7461C29.8479 21.4171 29.5827 24.3827 28.688 27.1748C27.914 29.5912 26.6549 31.8343 24.9522 33.7192C24.8089 33.8787 24.6619 34.0346 24.5124 34.1879C19.1078 39.7546 11.5531 39.8551 11.0341 39.8551H11.0329Z" fill="#616160"/>
<path d="M212 0.173828H204.557L194.206 14.6397L183.856 0.173828H176.413L190.484 19.8408L176.522 39.3544H183.965L194.206 25.0406L204.448 39.3544H211.89L197.927 19.8395L212 0.173828Z" fill="black"/>
<path d="M40.4256 0.326172H34.3965V39.5067H40.4256V0.326172Z" fill="#616160"/>
<path d="M47.4736 22.9315L49.121 16.9023H56.026V22.9315H47.4736Z" fill="#616160"/>
<path d="M86.1699 30.5968L87.8161 24.5664H94.721L97.2154 30.5968H86.1699Z" fill="#616160"/>
<path d="M56.0264 22.931V39.5067H62.0555V0.326172H56.0264V16.9019" fill="#616160"/>
<path d="M129.267 0.177734H110.032V6.33504H125.281C130.359 6.33504 134.516 9.64742 134.516 13.6949C134.516 15.7168 133.475 17.5577 131.804 18.8884C130.129 20.2229 127.822 21.051 125.281 21.051H110.032V21.6718H109.993V39.7868H115.917V27.2096H129.267C132.554 27.2096 135.543 25.6903 137.711 23.2387C139.879 20.7909 141.225 17.4144 141.225 13.6962C141.225 6.25964 135.841 0.178991 129.267 0.178991V0.177734Z" fill="#616160"/>
<path d="M182.41 6.51962H145.687V0.173828H179.885L182.41 6.51962Z" fill="black"/>
<path d="M172.961 16.7012H145.687V22.7303H172.961V16.7012Z" fill="black"/>
<path d="M83.666 0.173828H90.9078L105.531 39.803H98.0138L83.666 0.173828Z" fill="#616160"/>
<path d="M82.7731 18.703L79.4293 9.33008L66.7139 39.8037H74.2296L82.7731 18.703Z" fill="#616160"/>
</svg>
