<svg width="18" height="20" viewBox="0 0 18 20" fill="none" xmlns="http://www.w3.org/2000/svg">
<path d="M8.53809 0.5C10.619 0.5 12.3057 2.18701 12.3057 4.26758C12.3055 6.34801 10.6189 8.03418 8.53809 8.03418C6.45735 8.03412 4.77067 6.34797 4.77051 4.26758C4.77051 2.18705 6.45726 0.500058 8.53809 0.5Z" stroke="#5C460F" stroke-miterlimit="133.33" stroke-linecap="round"/>
<path d="M8.53516 10.8984C10.8221 10.8984 12.8684 11.421 14.3252 12.2402C15.7977 13.0683 16.5702 14.134 16.5703 15.1982V15.6982C16.5531 16.8015 16.4378 17.5966 15.6904 18.2051C15.2433 18.569 14.5299 18.8967 13.373 19.1309C12.2182 19.3646 10.6546 19.498 8.53809 19.498C6.42143 19.498 4.85733 19.3646 3.70215 19.1309C2.54502 18.8967 1.8313 18.5691 1.38379 18.2051C0.527418 17.5083 0.5 16.5666 0.5 15.1982C0.500109 14.134 1.27268 13.0683 2.74512 12.2402C4.20192 11.421 6.24813 10.8985 8.53516 10.8984Z" stroke="#5C460F" stroke-miterlimit="133.33" stroke-linecap="round"/>
</svg>
